<svg width="75" height="76" viewBox="0 0 75 76" fill="none" xmlns="http://www.w3.org/2000/svg">
<path d="M74.617 38.0987C74.617 58.8767 57.9947 75.7206 37.4901 75.7206C16.9855 75.7206 0.363281 58.8767 0.363281 38.0987C0.363281 17.3207 16.9855 0.476807 37.4901 0.476807C57.9947 0.476807 74.617 17.3207 74.617 38.0987ZM7.91272 38.0987C7.91272 54.6516 21.155 68.0705 37.4901 68.0705C53.8253 68.0705 67.0675 54.6516 67.0675 38.0987C67.0675 21.5457 53.8253 8.12691 37.4901 8.12691C21.155 8.12691 7.91272 21.5457 7.91272 38.0987Z" fill="url(#paint0_linear_87_33)"/>
<path d="M43.3057 47.3649C42.6102 47.4097 42.1481 46.9764 41.6956 46.5047C41.4893 46.2889 41.3278 45.9963 40.9041 46.1977C40.5108 46.3816 40.5508 46.6774 40.546 46.9972C40.5124 48.7688 40.0151 49.2533 38.2339 49.2549C37.6471 49.2549 37.0603 49.2724 36.4751 49.2453C35.4502 49.2005 34.8106 48.5417 34.7675 47.5152C34.7547 47.2226 34.7931 46.9252 34.7515 46.6374C34.7388 46.5352 34.6978 46.4385 34.6331 46.3583C34.5684 46.2781 34.4827 46.2176 34.3854 46.1835C34.2882 46.1494 34.1834 46.1432 34.0828 46.1655C33.9822 46.1878 33.8899 46.2377 33.8161 46.3096C33.6338 46.4695 33.4787 46.6518 33.3045 46.8149C32.505 47.568 31.5456 47.592 30.735 46.8469C30.1882 46.3416 29.6589 45.8124 29.1537 45.2655C28.4022 44.4533 28.4261 43.5259 29.1904 42.7073C29.3343 42.5474 29.4862 42.4003 29.6381 42.2516C29.8188 42.0709 29.9163 41.8902 29.798 41.612C29.6733 41.305 29.4623 41.2411 29.1697 41.2555C28.9035 41.2738 28.6364 41.2738 28.3702 41.2555C27.94 41.2349 27.5342 41.0499 27.2366 40.7386C26.939 40.4274 26.7724 40.0136 26.7713 39.583C26.7457 38.8107 26.7521 38.0384 26.7713 37.2661C26.7921 36.1757 27.4108 35.5393 28.4853 35.4674C28.7248 35.4514 28.965 35.4482 29.2048 35.4578C29.3363 35.4754 29.4698 35.4459 29.5816 35.3745C29.6935 35.3031 29.7763 35.1944 29.8156 35.0676C29.9275 34.7894 29.83 34.6183 29.6333 34.4472C29.4926 34.3241 29.3631 34.1898 29.2352 34.0555C28.4038 33.1857 28.391 32.2295 29.2128 31.3773C29.6925 30.8801 30.1834 30.3892 30.6838 29.9111C31.5377 29.0989 32.433 29.0973 33.2981 29.8919C33.4755 30.0518 33.6482 30.2117 33.8113 30.3956C33.8778 30.4789 33.9719 30.5357 34.0766 30.5556C34.1813 30.5756 34.2897 30.5574 34.3821 30.5043C34.4964 30.4672 34.5958 30.3947 34.666 30.2972C34.7361 30.1997 34.7734 30.0824 34.7723 29.9623C35.0377 27.5511 35.1816 27.4296 37.604 27.428H38.4034C39.94 27.436 40.522 28.018 40.5524 29.537C40.5524 29.8759 40.3925 30.2725 40.8993 30.4835C41.4062 30.6946 41.5693 30.2773 41.8123 30.0502C42.9316 29.0061 43.7438 29.0077 44.8343 30.0934C45.2308 30.4883 45.6337 30.8817 46.0191 31.283C46.9305 32.2215 46.9337 33.1377 46.0367 34.0715C45.9439 34.1674 45.8544 34.2666 45.7569 34.3561C45.5346 34.556 45.3395 34.735 45.5074 35.0964C45.6753 35.4578 45.9375 35.4338 46.2333 35.437C46.5002 35.4324 46.7671 35.443 47.0328 35.469C47.8994 35.5713 48.499 36.1837 48.5326 37.0535C48.5646 37.8785 48.5598 38.7052 48.5326 39.5302C48.5102 40.5152 47.8514 41.1739 46.8921 41.2443C46.6794 41.2602 46.4652 41.2523 46.2525 41.2523C45.9647 41.2523 45.6849 41.2059 45.5202 41.572C45.3555 41.9382 45.549 42.1157 45.7601 42.3267C45.9538 42.509 46.1369 42.7022 46.3085 42.9055C46.8233 43.5531 46.8761 44.4149 46.3373 45.0385C45.7297 45.742 45.0437 46.3784 44.3706 47.0212C44.2265 47.149 44.0575 47.2455 43.8742 47.3047C43.6909 47.3639 43.4973 47.3844 43.3057 47.3649ZM38.8927 46.2297C38.6848 45.4574 39.1181 45.1632 39.9224 44.7123C41.3103 43.9336 42.1609 44.2326 42.9827 45.3919C43.1746 45.6637 43.3665 45.6413 43.6351 45.4158C45.1765 44.1207 45.1828 44.1367 43.771 42.7472C43.7163 42.6904 43.6581 42.637 43.5967 42.5874C43.3041 42.3715 43.2881 42.1397 43.504 41.8471C43.6583 41.6613 43.7678 41.4424 43.8238 41.2075C44.046 39.7333 44.927 39.2888 46.3037 39.5478C46.7658 39.6341 46.9241 39.3879 46.8873 38.9482C46.8697 38.7372 46.8873 38.5229 46.8873 38.3086C46.8745 36.9064 47.0056 37.0727 45.7009 37.1398C44.7879 37.1862 44.1771 37.0471 44.0476 36.011C43.9927 35.6943 43.8603 35.396 43.6623 35.1428C43.2913 34.6455 43.3521 34.3129 43.8222 33.878C45.0629 32.7204 45.0182 32.714 43.8701 31.5052C43.448 31.0591 43.1458 30.9744 42.7717 31.5052C42.0729 32.4902 41.2655 32.9011 40.1782 32.0233C39.9755 31.8934 39.7436 31.8159 39.5035 31.7978C38.979 31.7147 38.8639 31.4285 38.8767 30.9184C38.9151 29.0509 38.8943 29.0717 37.0347 29.1053C36.5215 29.1148 36.336 29.3131 36.424 29.764C36.6814 31.0879 36.2353 31.8026 34.8554 32.1704C33.653 32.4902 33.6962 32.6501 32.7768 31.7355C32.0013 30.96 32.0013 30.96 31.2355 31.7355C30.2761 32.6948 30.2489 32.7316 31.2562 33.6542C31.8446 34.1914 32.1197 34.6423 31.5456 35.3634C31.3151 35.6914 31.166 36.0696 31.1107 36.4667C31.01 37.0375 30.7158 37.1494 30.1802 37.1414C28.2711 37.1158 28.2838 37.1414 28.4102 39.0282C28.4389 39.4471 28.5972 39.6405 28.9906 39.5558C30.444 39.2472 31.1123 39.8596 31.5488 41.2634C31.8079 42.0917 31.8974 42.525 31.2019 43.1102C30.2073 43.9448 30.2521 43.9992 31.1699 44.9202C31.9901 45.7436 32.0445 45.7916 32.8232 44.8786C33.4292 44.1687 33.8865 44.1575 34.7931 44.4661C36.1777 44.9362 36.6766 45.6493 36.4208 47.0244C36.344 47.4353 36.5695 47.6048 36.9772 47.5728C37.2154 47.5552 37.4569 47.5728 37.6951 47.5728C39.0014 47.5392 38.8879 47.7455 38.8975 46.2297H38.8927Z" fill="#7DB5FF"/>
<path d="M33.4128 22.8277C33.2228 22.6701 33.0423 22.5014 32.8724 22.3224C32.7324 22.1757 32.6533 21.9813 32.6512 21.7786C32.6492 21.5758 32.7242 21.3799 32.8612 21.2303C32.9741 21.0754 33.1428 20.9705 33.3317 20.9377C33.5205 20.9048 33.7147 20.9467 33.8733 21.0545C34.8039 21.6716 35.7009 22.3336 36.6186 22.9732C36.9128 23.1778 36.7018 23.3361 36.5915 23.4912C36.0878 24.2107 35.573 24.9302 35.0613 25.6386C34.7287 26.1039 34.3818 26.6283 33.7134 26.2254C33.0099 25.8017 33.3089 25.2372 33.6399 24.6744C33.3201 24.5369 33.0562 24.7224 32.8164 24.8183C27.4712 26.9417 24.3054 30.8271 23.4116 36.5256C23.3156 37.1412 23.1461 37.6752 22.4026 37.5681C21.6591 37.461 21.6304 36.8726 21.7311 36.2762C22.8503 29.6742 26.5279 25.2324 32.8676 23.0291C33.0179 22.9812 33.1634 22.9268 33.4128 22.8277Z" fill="#7DB5FF"/>
<path d="M53.2398 34.0703C53.3997 33.8896 53.5308 33.7185 53.6843 33.5762C53.8168 33.4407 53.9946 33.3589 54.1836 33.3462C54.3727 33.3335 54.5598 33.3909 54.7092 33.5074C55.0562 33.7425 55.2193 34.1326 54.9938 34.4828C54.375 35.4421 53.7019 36.3727 53.0399 37.3049C52.8193 37.6167 52.6178 37.3656 52.4355 37.2377C51.7608 36.758 51.0908 36.2784 50.4193 35.7987C49.9316 35.4517 49.3624 35.0936 49.7909 34.3948C50.2194 33.6961 50.7822 33.9647 51.4346 34.4428C51.0465 32.8581 50.3446 31.3673 49.3704 30.0586C46.9304 26.7104 43.6686 24.6942 39.545 24.117C39.4395 24.101 39.334 24.0818 39.2252 24.0642C38.6688 23.9747 38.3394 23.6741 38.4258 23.0857C38.5057 22.5292 38.9055 22.3534 39.4203 22.4061C40.8794 22.5477 42.3092 22.9067 43.6622 23.471C48.1573 25.3663 51.2198 28.6142 52.8497 33.2148C52.9376 33.4659 53.0239 33.7169 53.1135 33.9663C53.1279 33.9871 53.1566 33.9999 53.2398 34.0703Z" fill="#7DB5FF"/>
<path d="M41.7899 53.9011C42.0345 54.0978 42.1832 54.2081 42.3191 54.3312C42.7173 54.691 42.7796 55.1307 42.4519 55.5336C42.1241 55.9366 41.7084 55.9302 41.307 55.6519C40.4548 55.0635 39.6234 54.44 38.7632 53.8612C38.4018 53.6181 38.6033 53.4406 38.752 53.2216C39.2476 52.5287 39.7422 51.8359 40.2358 51.143C40.5667 50.6777 40.8993 50.1581 41.5804 50.5306C42.2616 50.9032 42.0297 51.4516 41.7052 52.0975C43.7119 51.5413 45.5619 50.5265 47.1095 49.1331C49.8181 46.722 51.4346 43.7144 51.9063 40.1072C51.983 39.5124 52.2005 39.012 52.8656 39.0999C53.574 39.1943 53.6763 39.7395 53.5724 40.3791C52.4531 47.1185 48.6701 51.5859 42.1705 53.7332C42.0761 53.7652 41.9882 53.8132 41.7899 53.9011Z" fill="#7DB5FF"/>
<path d="M22.1425 42.5776C21.9657 42.7873 21.775 42.985 21.5717 43.1692C21.4293 43.2943 21.245 43.3611 21.0555 43.356C20.866 43.351 20.6855 43.2745 20.55 43.142C20.2302 42.8718 20.1103 42.5024 20.3469 42.1443C20.9641 41.2137 21.626 40.3119 22.2656 39.3941C22.5007 39.0583 22.6765 39.3238 22.8508 39.4453C23.6135 39.9793 24.365 40.5294 25.1293 41.0618C25.609 41.3928 25.8616 41.8005 25.505 42.3409C25.1757 42.8398 24.7152 42.7966 24.2483 42.5008C24.1282 42.4408 24.0049 42.3874 23.8789 42.3409C24.4466 44.3973 25.49 46.2913 26.9249 47.87C29.218 50.4748 32.3832 52.1526 35.8261 52.5884C36.448 52.6748 36.9757 52.8331 36.867 53.583C36.7582 54.3328 36.173 54.3312 35.575 54.2353C29.1474 53.2104 24.7983 49.6384 22.4847 43.5673C22.3727 43.2795 22.28 42.9773 22.1425 42.5776Z" fill="#7DB5FF"/>
<path d="M37.7026 33.4269C38.3499 33.4311 38.9899 33.563 39.5861 33.815C40.1823 34.067 40.7228 34.4343 41.1767 34.8957C41.6307 35.357 41.9891 35.9035 42.2314 36.5036C42.4738 37.1038 42.5953 37.7459 42.5889 38.3931C42.5666 41.0889 40.2721 43.3498 37.6051 43.2906C36.2975 43.2675 35.0517 42.7304 34.1372 41.7956C33.2227 40.8607 32.7131 39.6034 32.7188 38.2956C32.7259 37.6485 32.8605 37.0092 33.1149 36.4142C33.3693 35.8192 33.7385 35.2802 34.2014 34.828C34.6642 34.3758 35.2117 34.0193 35.8125 33.7789C36.4133 33.5385 37.0556 33.4189 37.7026 33.4269ZM40.8877 38.3324C40.8826 37.6935 40.6884 37.0705 40.3295 36.5419C39.9706 36.0134 39.4632 35.603 38.8713 35.3626C38.2794 35.1222 37.6295 35.0625 37.0037 35.1912C36.3779 35.3199 35.8043 35.6311 35.3552 36.0855C34.9061 36.5399 34.6017 37.1172 34.4805 37.7445C34.3593 38.3717 34.4266 39.0209 34.674 39.6099C34.9214 40.1989 35.3377 40.7015 35.8705 41.0541C36.4033 41.4067 37.0286 41.5935 37.6675 41.591C38.5265 41.5855 39.3482 41.2392 39.952 40.6282C40.5558 40.0171 40.8924 39.1914 40.8877 38.3324Z" fill="#7DB5FF"/>
<defs>
<linearGradient id="paint0_linear_87_33" x1="37.4901" y1="0.476807" x2="37.4901" y2="75.7206" gradientUnits="userSpaceOnUse">
<stop stop-color="#7DB5FF"/>
<stop offset="1" stop-color="#124993"/>
</linearGradient>
</defs>
</svg>
